<svg xmlns="http://www.w3.org/2000/svg" viewBox="0 0 512 512" width="512" height="512">
  <defs>
    <linearGradient id="bgGradient" x1="0%" y1="0%" x2="100%" y2="100%">
      <stop offset="0%" style="stop-color:#4F46E5"/>
      <stop offset="100%" style="stop-color:#7C3AED"/>
    </linearGradient>
    <linearGradient id="flameGrad" x1="0%" y1="100%" x2="100%" y2="0%">
      <stop offset="0%" style="stop-color:#F59E0B"/>
      <stop offset="100%" style="stop-color:#FBBF24"/>
    </linearGradient>
  </defs>
  
  <!-- Background -->
  <rect width="512" height="512" rx="100" fill="url(#bgGradient)"/>
  
  <!-- Diya Base -->
  <ellipse cx="256" cy="380" rx="100" ry="25" fill="#ffffff" opacity="0.9"/>
  <path d="M156 380 Q156 340 190 310 L322 310 Q356 340 356 380 Z" fill="#ffffff" opacity="0.9"/>
  
  <!-- Flame -->
  <path d="M256 100 
           Q310 150 300 200 
           Q290 250 256 270 
           Q222 250 212 200 
           Q202 150 256 100" 
        fill="url(#flameGrad)"/>
  
  <!-- Inner flame -->
  <path d="M256 140 
           Q285 170 280 210 
           Q270 240 256 250 
           Q242 240 232 210 
           Q227 170 256 140" 
        fill="#ffffff" opacity="0.8"/>
  
  <!-- AI Circuit nodes -->
  <circle cx="240" cy="180" r="6" fill="#4F46E5"/>
  <circle cx="272" cy="170" r="6" fill="#4F46E5"/>
  <circle cx="256" cy="210" r="6" fill="#4F46E5"/>
  <line x1="240" y1="180" x2="256" y2="210" stroke="#4F46E5" stroke-width="2"/>
  <line x1="272" y1="170" x2="256" y2="210" stroke="#4F46E5" stroke-width="2"/>
  <line x1="240" y1="180" x2="272" y2="170" stroke="#4F46E5" stroke-width="2"/>
  
  <!-- Wick -->
  <rect x="250" y="280" width="12" height="30" fill="#1F2937" rx="3"/>
</svg>
