<svg xmlns="http://www.w3.org/2000/svg" viewBox="0 0 512 512" width="512" height="512">
  <defs>
    <linearGradient id="bgGrad2" x1="0%" y1="0%" x2="100%" y2="100%">
      <stop offset="0%" style="stop-color:#4F46E5"/>
      <stop offset="100%" style="stop-color:#7C3AED"/>
    </linearGradient>
  </defs>
  
  <!-- Background -->
  <rect width="512" height="512" rx="100" fill="url(#bgGrad2)"/>
  
  <!-- Graduation Cap -->
  <polygon points="256,80 140,130 256,170 372,130" fill="#1F2937"/>
  <rect x="170" y="130" width="172" height="15" fill="#1F2937"/>
  <line x1="340" y1="130" x2="370" y2="180" stroke="#F59E0B" stroke-width="6"/>
  <circle cx="370" cy="190" r="12" fill="#F59E0B"/>
  
  <!-- Owl Body -->
  <ellipse cx="256" cy="320" rx="130" ry="120" fill="#ffffff"/>
  
  <!-- Owl Face -->
  <ellipse cx="256" cy="300" rx="100" ry="90" fill="#E0E7FF"/>
  
  <!-- Left Eye -->
  <circle cx="210" cy="280" r="40" fill="#ffffff"/>
  <circle cx="210" cy="280" r="28" fill="#1F2937"/>
  <circle cx="218" cy="272" r="10" fill="#ffffff"/>
  
  <!-- Right Eye (AI) -->
  <circle cx="302" cy="280" r="40" fill="#ffffff"/>
  <circle cx="302" cy="280" r="28" fill="#4F46E5"/>
  <circle cx="310" cy="272" r="10" fill="#ffffff"/>
  <!-- Circuit in eye -->
  <circle cx="302" cy="280" r="14" fill="none" stroke="#A855F7" stroke-width="2"/>
  <line x1="288" y1="280" x2="316" y2="280" stroke="#A855F7" stroke-width="2"/>
  <line x1="302" y1="266" x2="302" y2="294" stroke="#A855F7" stroke-width="2"/>
  
  <!-- Beak -->
  <polygon points="256,320 240,360 272,360" fill="#F59E0B"/>
  
  <!-- Ear tufts -->
  <polygon points="140,200 165,160 190,210" fill="#ffffff"/>
  <polygon points="372,200 347,160 322,210" fill="#ffffff"/>
</svg>
